<?xml version="1.0" standalone="no"?>
<!DOCTYPE svg PUBLIC "-//W3C//DTD SVG 20010904//EN"
 "http://www.w3.org/TR/2001/REC-SVG-20010904/DTD/svg10.dtd">
<svg version="1.0" xmlns="http://www.w3.org/2000/svg"
 width="700.000000pt" height="700.000000pt" viewBox="0 0 700.000000 700.000000"
 preserveAspectRatio="xMidYMid meet">
<metadata>
Created by potrace 1.11, written by Peter Selinger 2001-2013
</metadata>
<g transform="translate(0.000000,700.000000) scale(0.100000,-0.100000)"
fill="#000000" stroke="none">
<path d="M0 3500 l0 -3500 3500 0 3500 0 0 3500 0 3500 -3500 0 -3500 0 0
-3500z m1899 2660 c152 -16 281 -52 401 -112 89 -44 118 -65 190 -138 96 -96
139 -163 186 -288 43 -117 62 -209 76 -380 20 -239 -8 -482 -76 -664 -47 -125
-90 -192 -186 -288 -72 -73 -101 -94 -190 -138 -120 -60 -249 -96 -401 -112
-56 -5 -272 -10 -480 -10 l-379 0 0 1070 0 1070 379 0 c208 0 424 -5 480 -10z
m2523 -564 l3 -575 620 574 620 574 133 1 c72 0 132 -2 132 -4 0 -2 -214 -201
-475 -442 -410 -380 -472 -440 -461 -454 9 -11 843 -1057 979 -1227 7 -10 -18
-13 -120 -13 l-129 0 -443 555 c-243 305 -446 555 -451 555 -5 0 -99 -84 -209
-186 l-201 -187 0 -368 0 -369 -100 0 -100 0 0 1070 0 1070 100 0 100 0 2
-574z m-2867 -3586 c192 -528 352 -957 355 -953 5 6 602 1655 682 1886 l10 27
104 0 c57 0 104 -2 104 -4 0 -5 -759 -2053 -781 -2108 l-11 -28 -117 0 -116 0
-390 1055 c-214 581 -391 1062 -393 1070 -3 12 14 15 100 15 l104 0 349 -960z
m3125 143 c178 -450 344 -871 369 -935 25 -65 48 -118 52 -118 3 0 126 307
273 683 148 375 314 796 368 935 l100 252 149 0 149 0 0 -1070 0 -1070 -100 0
-100 0 0 925 c0 509 -3 925 -7 925 -5 0 -172 -417 -373 -925 l-365 -925 -95 2
-95 3 -361 909 c-198 500 -366 916 -372 925 -8 12 -11 -237 -11 -911 l-1 -928
-100 0 -100 0 0 1070 0 1070 148 0 149 0 323 -817z"/>
<path d="M1240 5100 l0 -900 288 0 c158 0 321 5 362 10 379 49 579 236 647
603 24 130 24 457 -1 581 -72 365 -269 547 -646 596 -41 5 -204 10 -362 10
l-288 0 0 -900z"/>
</g>
</svg>
